# AST/ASF file generated using VICON BodyLanguage
# -----------------------------------------------
:version 1.10
:name VICON
:units
  mass 1.0
  length 0.45
  angle deg
:documentation
   .ast/.asf automatically generated from VICON data using
   VICON BodyBuilder and BodyLanguage model FoxedUp or BRILLIANT.MOD
:root
   order TX TY TZ RX RY RZ
   axis XYZ
   position 0 0 0  
   orientation 0 0 0 
:bonedata
  begin
     id 1 
     name lhipjoint
     direction 0.623415 -0.642378 0.445763 
     length 2.49859 
     axis 0 0 0  XYZ
  end
  begin
     id 2 
     name lfemur
     direction 0.34202 -0.939693 0  
     length 6.69689  
     axis 0 0 20  XYZ
    dof rx ry rz
    limits (-160.0 20.0)
           (-70.0 70.0)
           (-60.0 70.0)
  end
  begin
     id 3 
     name ltibia
     direction 0.34202 -0.939693 0   
     length 7.37574   
     axis 0 0 20   XYZ
    dof rx
    limits (-10.0 170.0)
  end
  begin
     id 4 
     name lfoot
     direction 0.084323 -0.231675 0.969132   
     length 2.09111   
     axis -90 7.62852e-016 20   XYZ
    dof rx rz
    limits (-45.0 90.0)
           (-70.0 20.0)
  end
  begin
     id 5 
     name ltoes
     direction 1.5357e-011 -4.21957e-011 1   
     length 1.04989   
     axis -90 7.62852e-016 20   XYZ
    dof rx
    limits (-90.0 20.0)
  end
  begin
     id 6 
     name rhipjoint
     direction -0.605402 -0.653903 0.45376   
     length 2.45455  
     axis 0 0 0  XYZ 
  end
  begin
     id 7 
     name rfemur
     direction -0.34202 -0.939693 0   
     length 6.64523   
     axis 0 0 -20   XYZ
    dof rx ry rz
    limits (-160.0 20.0)
           (-70.0 70.0)
           (-70.0 60.0)
  end
  begin
     id 8 
     name rtibia
     direction -0.34202 -0.939693 0   
     length 7.3339   
     axis 0 0 -20   XYZ
    dof rx
    limits (-10.0 170.0)
 end
 begin
     id 9 
     name rfoot
     direction -0.120854 -0.332043 0.93549   
     length 2.23135  
     axis -90 -7.62852e-016 -20   XYZ
    dof rx rz
    limits (-45.0 90.0)
           (-20.0 70.0)
  end
  begin
     id 10 
     name rtoes
     direction -1.53563e-011 -4.21914e-011 1   
     length 1.10614   
     axis -90 -7.62852e-016 -20   XYZ
    dof rx
    limits (-90.0 20.0)
  end
  begin
     id 11 
     name lowerback
     direction 0.0319682 0.998615 -0.0417941   
     length 2.02718   
     axis 0 0 0   XYZ
    dof rx ry rz
    limits (-20.0 45.0)
           (-30.0 30.0)
           (-30.0 30.0)
  end
  begin
     id 12 
     name upperback
     direction 7.63181e-005 0.995808 0.0914691   
     length 1.97539   
     axis 0 0 0   XYZ
    dof rx ry rz
    limits (-20.0 45.0)
           (-30.0 30.0)
           (-30.0 30.0)
  end
  begin
     id 13 
     name thorax
     direction -0.016423 0.993627 0.111514   
     length 2.00349   
     axis 0 0 0   XYZ
    dof rx ry rz
    limits (-20.0 45.0)
           (-30.0 30.0)
           (-30.0 30.0)
  end
  begin
     id 14 
     name lowerneck
     direction -0.174763 0.981668 -0.0760716   
     length 1.71436   
     axis 0 0 0   XYZ
    dof rx ry rz
    limits (-20.0 45.0)
           (-30.0 30.0)
           (-30.0 30.0)
  end
  begin
     id 15 
     name upperneck
     direction 0.345458 0.934587 -0.0848868   
     length 1.72805   
     axis 0 0 0   XYZ
    dof rx ry rz
    limits (-20.0 45.0)
           (-30.0 30.0)
           (-30.0 30.0)
  end
  begin
     id 16
     name head
     direction 0.13001 0.989848 -0.0574291  
     length 1.767  
     axis 0 0 0   XYZ
    dof rx ry rz
    limits (-20.0 45.0)
           (-30.0 30.0)
           (-30.0 30.0)
  end
  begin
     id 17 
     name lclavicle
     direction 0.952951 0.290122 0.0878234  
     length 3.54654  
     axis 0 0 0   XYZ
    dof ry rz
    limits (-20.0 10.0)
           (0.0 20.0)
  end
  begin
     id 18 
     name lhumerus
     direction 1 -4.48957e-011 -4.56525e-028   
     length 5.19807   
     axis 180 -30 -90   XYZ
    dof rx ry rz
    limits (-60.0 90.0)
           (-90.0 90.0)
           (-90.0 90.0)
  end
  begin
     id 19
     name lradius
     direction 1 -4.48979e-011 -2.0317e-027   
     length 3.0937   
     axis 180 -30 -90   XYZ
    dof rx
    limits (-10.0 170.0)
  end
  begin
     id 20
     name lwrist
     direction 1 -4.48953e-011 -3.05809e-027   
     length 1.54685   
     axis 8.48514e-016 90 90   XYZ
    dof ry
    limits (-180.0 0.0)
 end
  begin
     id 21 
     name lhand
     direction 1 -4.48952e-011 -6.11639e-027   
     length 0.672632   
     axis 3.9013e-015 90 90   XYZ
    dof rx rz
    limits (-90.0 90.0)
           (-45.0 45.0)
  end
  begin
     id 22 
     name lfingers
     direction 1 -4.48925e-011 -1.22426e-026   
     length 0.542293   
     axis 7.80276e-015 90 90   XYZ
    dof rx
    limits (0.0 90.0)
  end
  begin
     id 23
     name lthumb
     direction 0.707107 -6.3486e-011 0.707107   
     length 0.778628   
     axis -90 45 5.37419e-014   XYZ
    dof rx rz
    limits (-45.0 45.0)
           (-45.0 45.0)
  end
  begin
     id 24 
     name rclavicle
     direction -0.960732 0.273675 -0.0457849   
     length 3.52079  
     axis 0 0 0   XYZ 
    dof ry rz
    limits (-10.0 20.0)
           (-20.0 0.0)
  end
  begin
     id 25 
     name rhumerus
     direction -1 -4.48976e-011 -1.63613e-027  
     length 5.45222   
     axis 180 30 90   XYZ
    dof rx ry rz
    limits (-90.0 60.0)
           (-90.0 90.0)
           (-90.0 90.0)
  end
  begin
     id 26 
     name rradius
     direction -1 -4.48957e-011 -7.00033e-028   
     length 3.01284   
     axis 180 30 90   XYZ
    dof rx
    limits (-10.0 170.0)
  end
  begin
     id 27 
     name rwrist
     direction -1 -4.48983e-011 -3.05543e-027   
     length 1.50642   
     axis 8.48514e-016 -90 -90   XYZ
    dof ry
    limits (-180.0 0.0)
  end
  begin
     id 28
     name rhand
     direction -1 -4.48984e-011 -6.11072e-027   
     length 0.622296   
     axis 3.9013e-015 -90 -90   XYZ
    dof rx rz
    limits (-90.0 90.0)
           (-45.0 45.0)
  end
  begin
     id 29
     name rfingers
     direction -1 -4.48865e-011 -1.22637e-026   
     length 0.501711   
     axis 7.80276e-015 -90 -90   XYZ
    dof rx
    limits (0.0 90.0)
  end
  begin
     id 30
     name rthumb
     direction -0.707107 -6.34932e-011 0.707107   
     length 0.72036   
     axis -90 -45 -5.37419e-014   XYZ
    dof rx rz
    limits (-45.0 45.0)
           (-45.0 45.0)
  end
:hierarchy
  begin
    root lhipjoint rhipjoint lowerback
    lhipjoint lfemur
    lfemur ltibia
    ltibia lfoot
    lfoot ltoes
    rhipjoint rfemur
    rfemur rtibia
    rtibia rfoot
    rfoot rtoes
    lowerback upperback
    upperback thorax
    thorax lowerneck lclavicle rclavicle
    lowerneck upperneck
    upperneck head
    lclavicle lhumerus
    lhumerus lradius
    lradius lwrist
    lwrist lhand lthumb
    lhand lfingers
    rclavicle rhumerus
    rhumerus rradius
    rradius rwrist
    rwrist rhand rthumb
    rhand rfingers
  end

#!OML:ASF H:\Not Pregnant\Project 1\Capture day 1\Session 1\non-pregnant.ASF
:FULLY-SPECIFIED
:DEGREES
137
root -5.7301 16.3542 35.0231 145.264 -83.68 -131.897
lowerback -13.4084 2.62013 3.33545
upperback -6.96328 2.73307 -0.750957
thorax 0.383851 1.12157 -2.28882
lowerneck 17.771 -9.12623 -30.0158
upperneck -5.11115 -19.928 42.3106
head 3.91678 -12.6205 21.0002
rclavicle 2.38542e-015 -3.18055e-015
rhumerus 13.6048 -20.9582 -64.4011
rradius 103.435
rwrist 42.0443
rhand -46.6972 14.5009
rfingers 7.12502
rthumb -19.4162 -14.5497
lclavicle 2.38542e-015 -3.18055e-015
lhumerus -43.3419 -6.25848 87.756
lradius 32.0514
lwrist 46.5228
lhand 12.5602 -7.63408
lfingers 7.12502
lthumb 37.5504 18.2861
rfemur 0 0 0
rtibia 0
rfoot 0 0
rtoes 0
lfemur -17.0416 5.80638 -16.5811
ltibia 16.0275
lfoot -13.5495 -6.11582
ltoes -16.594
138
root -5.73086 16.3537 35.0226 145.677 -83.6517 -132.331
lowerback -13.4958 2.69786 3.56568
upperback -6.87983 2.81353 -0.962412
thorax 0.543158 1.15898 -2.6226
lowerneck 17.6376 -9.1704 -29.7446
upperneck -5.01385 -19.9347 42.3288
head 3.93726 -12.6185 20.9345
rclavicle 1.33186e-014 -3.26007e-014
rhumerus 13.638 -22.2395 -64.7105
rradius 102.96
rwrist 51.3013
rhand -49.1862 16.5379
rfingers 7.12502
rthumb -21.8079 -12.2534
lclavicle 1.33186e-014 -3.26007e-014
lhumerus -43.2312 -6.63355 87.6271
lradius 32.069
lwrist 46.6403
lhand 12.1775 -7.67779
lfingers 7.12502
lthumb 37.1886 18.3377
rfemur 0 0 0
rtibia 0
rfoot 0 0
rtoes 0
lfemur -16.9957 5.78306 -16.5876
ltibia 16.013
lfoot -13.5397 -6.0378
ltoes -16.6792
139
root -5.73127 16.3536 35.0225 145.994 -83.6369 -132.656
lowerback -13.5541 2.75105 3.711
upperback -6.82193 2.86992 -1.10275
thorax 0.652204 1.18603 -2.8395
lowerneck 17.5203 -9.20335 -29.5603
upperneck -4.93221 -19.9419 42.3414
head 3.96166 -12.6157 20.8862
rclavicle 2.64384e-014 -8.74653e-015
rhumerus 13.6937 -23.3867 -64.9074
rradius 102.797
rwrist 59.1392
rhand -51.5575 19.4978
rfingers 7.12502
rthumb -24.0832 -9.01086
lclavicle 2.64384e-014 -8.74653e-015
lhumerus -43.1324 -6.87209 87.5397
lradius 32.1066
lwrist 46.8134
lhand 11.9115 -7.59763
lfingers 7.12502
lthumb 36.937 18.4831
rfemur 0 0 0
rtibia 0
rfoot 0 0
rtoes 0
lfemur -16.9712 5.76464 -16.5997
ltibia 16.0023
lfoot -13.5289 -5.98598
ltoes -16.7447
140
root -5.73128 16.3535 35.0221 146.206 -83.6228 -132.88
lowerback -13.5515 2.77163 3.73408
upperback -6.79873 2.89669 -1.13644
thorax 0.6799 1.20004 -2.88335
lowerneck 17.4327 -9.21354 -29.5119
upperneck -4.85564 -19.9478 42.3419
head 3.99477 -12.611 20.8656
rclavicle -2.98177e-016 2.06736e-014
rhumerus 13.7362 -24.2488 -64.9229
rradius 102.852
rwrist 65.2332
rhand -53.563 23.4237
rfingers 7.12502
rthumb -26.005 -4.81686
lclavicle -2.98177e-016 2.06736e-014
lhumerus -43.0725 -6.90811 87.5087
lradius 32.1755
lwrist 47.104
lhand 11.8307 -7.36516
lfingers 7.12502
lthumb 36.8606 18.7352
rfemur 0 0 0
rtibia 0
rfoot 0 0
rtoes 0
lfemur -16.9489 5.75295 -16.6029
ltibia 15.9975
lfoot -13.5194 -5.95046
ltoes -16.8003
141
root -5.73118 16.3533 35.0216 146.318 -83.6148 -133.004
lowerback -13.5422 2.79142 3.75753
upperback -6.77567 2.92277 -1.16902
thorax 0.703857 1.21373 -2.92659
lowerneck 17.3733 -9.21211 -29.4926
upperneck -4.81447 -19.9509 42.3901
head 4.02502 -12.6137 20.8861
rclavicle 3.28989e-014 1.27222e-014
rhumerus 13.7332 -24.8793 -64.8715
rradius 103.027
rwrist 69.456
rhand -55.108 28.7483
rfingers 7.12502
rthumb -27.4835 0.733731
lclavicle 3.28989e-014 1.27222e-014
lhumerus -42.9961 -6.91302 87.4478
lradius 32.2795
lwrist 47.4727
lhand 11.8696 -7.01102
lfingers 7.12502
lthumb 36.8974 19.0799
rfemur 0 0 0
rtibia 0
rfoot 0 0
rtoes 0
lfemur -16.9327 5.74946 -16.6029
ltibia 16.0008
lfoot -13.5144 -5.93512
ltoes -16.8294
